<svg width="24" height="20" viewBox="0 0 24 20" fill="none" xmlns="http://www.w3.org/2000/svg">
<path d="M21.2776 4.89566C21.2918 5.10176 21.2918 5.30786 21.2918 5.51586C21.2918 11.8537 16.4763 19.1631 7.67095 19.1631V19.1593C5.06982 19.1631 2.52273 18.4166 0.333008 17.009C0.711233 17.0546 1.09135 17.0774 1.47242 17.0784C3.62802 17.0803 5.722 16.3556 7.41785 15.0212C5.36937 14.9822 3.57304 13.644 2.94551 11.6903C3.66309 11.829 4.40248 11.8005 5.10679 11.6077C2.87346 11.1556 1.26672 9.18957 1.26672 6.90632C1.26672 6.88542 1.26672 6.86548 1.26672 6.84553C1.93217 7.21689 2.67724 7.42299 3.43938 7.44579C1.33592 6.03728 0.687534 3.23356 1.95776 1.04149C4.38826 4.03801 7.97428 5.85967 11.8238 6.05248C11.438 4.38658 11.9651 2.6409 13.2088 1.46984C15.1369 -0.346123 18.1693 -0.253045 19.9817 1.67784C21.0538 1.46604 22.0814 1.07188 23.0218 0.513419C22.6644 1.6237 21.9165 2.56682 20.9173 3.16613C21.8662 3.05405 22.7933 2.79951 23.6663 2.41106C23.0236 3.37603 22.2141 4.21657 21.2776 4.89566Z" fill="#121212"/>
</svg>
