<svg width="19" height="20" viewBox="0 0 19 20" fill="none" xmlns="http://www.w3.org/2000/svg">
<path fill-rule="evenodd" clip-rule="evenodd" d="M1.94548 0.782189C1.25398 0.959517 0.723068 1.39242 0.440771 2.00897C-0.138996 3.27541 0.497214 4.72136 1.81581 5.13415C2.13888 5.23533 2.72797 5.24415 3.07755 5.15308C3.86132 4.94891 4.49469 4.29076 4.68521 3.48238C4.94384 2.38502 4.33204 1.24833 3.27084 0.854547C2.92884 0.727684 2.29333 0.692969 1.94548 0.782189ZM14.0669 6.60291C13.1259 6.67786 12.4191 6.91188 11.7374 7.37414C11.4434 7.57361 10.9632 8.04498 10.7753 8.31871C10.7014 8.4264 10.6218 8.51454 10.5984 8.51454C10.5704 8.51454 10.5597 8.25501 10.5671 7.75147C10.574 7.28084 10.5624 6.97257 10.5369 6.94709C10.5102 6.92033 9.85483 6.90953 8.68396 6.91645L6.87238 6.92722L6.86195 13.1297C6.85362 18.0645 6.86207 19.3389 6.90318 19.365C6.93159 19.3831 7.79485 19.3981 8.8215 19.3985L10.6882 19.3991L10.7284 19.2933C10.7533 19.2277 10.7686 17.8999 10.7686 15.7961C10.7686 12.0644 10.7749 11.9515 11.0207 11.3181C11.3496 10.4708 12.022 10.04 13.0156 10.04C14.2467 10.04 14.8615 10.687 15.014 12.1427C15.0376 12.3685 15.0553 13.9777 15.0557 15.9417C15.0563 19.0103 15.0629 19.3515 15.1216 19.3741C15.1575 19.3878 16.018 19.3991 17.0337 19.3991C18.6163 19.3991 18.8879 19.3903 18.9314 19.3379C18.9957 19.2605 18.963 12.0755 18.8942 11.144C18.8146 10.067 18.5669 9.12189 18.1876 8.44829C17.9094 7.95436 17.3319 7.39203 16.8499 7.1459C16.4016 6.91695 15.9518 6.77182 15.4275 6.68697C15.0051 6.61861 14.3658 6.57912 14.0669 6.60291ZM0.543679 13.1278C0.543679 18.7627 0.549823 19.3514 0.608904 19.3741C0.644774 19.3878 1.50379 19.3991 2.51782 19.3991C3.89682 19.3991 4.37397 19.3866 4.41099 19.3496C4.4829 19.2777 4.4829 7.02798 4.41099 6.95608C4.37393 6.91901 3.88235 6.9066 2.4526 6.9066H0.543679V13.1278Z" fill="#121212"/>
</svg>
