<svg width="22" height="20" viewBox="0 0 22 20" fill="none" xmlns="http://www.w3.org/2000/svg">
<path fill-rule="evenodd" clip-rule="evenodd" d="M19.8849 1.20721C18.5754 1.72343 7.84301 5.86468 4.54534 7.12617C1.98517 8.10557 0.863082 8.54632 0.651917 8.65552C0.421316 8.77477 0.326468 9.08628 0.438839 9.35522C0.540743 9.59909 0.472149 9.57033 4.47203 11.0482C5.07311 11.2703 5.60368 11.4814 5.6511 11.5173C5.69847 11.5532 5.8707 12.0132 6.03384 12.5395C7.79798 18.2311 7.68543 17.8997 7.89103 18.0097C8.03881 18.0888 8.28867 18.0885 8.43722 18.009C8.50127 17.9747 9.21531 17.4121 10.024 16.7587C11.0551 15.9256 11.5541 15.5594 11.6946 15.5331C11.9779 15.48 12.2364 15.6049 12.9724 16.1507C13.3206 16.409 14.4641 17.2428 15.5134 18.0036C17.5106 19.4517 17.6088 19.5051 17.9438 19.3258C18.1565 19.212 18.14 19.2747 18.8076 16.038C19.6261 12.07 21.3316 3.88029 21.6819 2.23624C21.799 1.68653 21.8733 1.19764 21.8523 1.11398C21.798 0.897788 21.5508 0.727708 21.2971 0.732014C21.1756 0.734107 20.5571 0.942222 19.8849 1.20721ZM14.9511 5.80303C13.8492 6.48466 11.6829 7.81851 10.1369 8.76717C8.59103 9.71583 7.22835 10.5917 7.10881 10.7136C6.7708 11.0583 6.76482 11.2489 7.05911 12.3054C7.45274 13.7186 7.89139 15.2186 7.95395 15.3652C8.01895 15.5175 8.25751 15.5489 8.36503 15.4194C8.40169 15.3752 8.50049 14.8302 8.58457 14.2084C8.69963 13.3578 8.77379 13.0022 8.88401 12.7728C9.0084 12.5139 9.58352 11.9545 12.6935 9.06738C17.2562 4.83164 17.3124 4.77734 17.2649 4.65349C17.2443 4.59973 17.166 4.55756 17.0909 4.55972C17.0159 4.56193 16.053 5.12139 14.9511 5.80303Z" fill="#121212"/>
</svg>
