<svg width="17" height="20" viewBox="0 0 17 20" fill="none" xmlns="http://www.w3.org/2000/svg">
<path fill-rule="evenodd" clip-rule="evenodd" d="M3.53697 0.784259C3.53697 0.812989 3.81277 1.74389 4.14986 2.85285L4.76275 4.86911V6.32465V7.78019H5.29903H5.83531V6.35675V4.93331L6.45732 2.89008C6.79947 1.76634 7.0955 0.819424 7.11519 0.785868C7.13495 0.752389 6.90021 0.735151 6.59369 0.747562L6.03634 0.770239L5.69818 2.17591C5.51217 2.94899 5.33343 3.55231 5.30103 3.51661C5.26862 3.48091 5.09211 2.83975 4.90885 2.09179L4.57567 0.731934H4.05632C3.77071 0.731934 3.53697 0.755453 3.53697 0.784259ZM7.85625 2.60409C7.72478 2.66132 7.51793 2.83814 7.39658 2.99711L7.17602 3.28608L7.15158 4.94993C7.13656 5.97346 7.15878 6.73123 7.20934 6.91885C7.38018 7.5535 7.81365 7.87059 8.51947 7.87718C9.11038 7.88277 9.48945 7.68159 9.72404 7.23801C9.8994 6.90636 9.90269 6.86093 9.88032 5.08507C9.85489 3.06782 9.85113 3.05257 9.2836 2.66637C8.98619 2.46397 8.25187 2.43187 7.85625 2.60409ZM10.8151 4.98977V7.40893L11.039 7.63287C11.1622 7.75606 11.3356 7.8568 11.4245 7.8568C11.6714 7.8568 12.1316 7.64191 12.3664 7.41705L12.5771 7.21526V7.49772V7.78019H13.0874H13.5976L13.5472 5.88406C13.5194 4.84114 13.4967 3.66906 13.4966 3.27927L13.4965 2.57061H13.0368H12.5771V4.55569V6.54077L12.3414 6.73912C12.2118 6.84821 12.0635 6.93746 12.012 6.93746C11.7549 6.93746 11.7344 6.769 11.7344 4.6621V2.57061H11.2747H10.8151V4.98977ZM8.25402 3.45708C8.15228 3.5589 8.13366 3.82489 8.13366 5.1754C8.13366 6.90598 8.15848 7.01408 8.55617 7.01408C8.92858 7.01408 8.97639 6.80485 8.97639 5.1754C8.97639 3.94349 8.95516 3.647 8.8571 3.50703C8.71805 3.30838 8.42685 3.28432 8.25402 3.45708ZM3.0773 8.77407C1.84585 8.85076 1.27509 9.18594 0.8702 10.0705C0.589189 10.6842 0.533339 11.527 0.567585 14.6369C0.597003 17.3049 0.603822 17.4099 0.776428 17.8546C1.01063 18.4578 1.44655 18.8915 2.04305 19.1148C2.47414 19.2762 2.6888 19.2918 5.49838 19.3667C8.76486 19.4537 14.271 19.3517 14.8372 19.1938C15.2568 19.0766 15.7101 18.753 15.9676 18.3867C16.3703 17.8136 16.4183 17.465 16.4621 14.7901C16.5228 11.0775 16.3829 10.0718 15.7121 9.40091C15.2536 8.94254 14.8919 8.84662 13.3432 8.77308C11.7909 8.69938 4.26577 8.70007 3.0773 8.77407ZM1.69829 10.9213V11.4575H2.27288H2.84747V14.4837V17.5098H3.38375H3.92003V14.4837V11.4575H4.49461H5.0692V10.9213V10.385H3.38375H1.69829V10.9213ZM8.82316 13.9474V17.5098H9.32114C9.80992 17.5098 9.81911 17.506 9.81911 17.305V17.1001L10.0032 17.273C10.437 17.6805 11.1816 17.6059 11.4624 17.1268C11.6097 16.8754 11.6195 16.7367 11.6195 14.9051C11.6195 12.7953 11.5913 12.6302 11.1815 12.3432C10.9197 12.1598 10.4238 12.1917 10.098 12.4129L9.81911 12.6021V11.4935V10.385H9.32114H8.82316V13.9474ZM13.2283 12.2561C12.9358 12.3871 12.6919 12.621 12.5205 12.9345C12.4083 13.1399 12.3812 13.4257 12.3594 14.6369C12.3237 16.6225 12.4605 17.1339 13.1187 17.4743C13.395 17.6172 14.206 17.6199 14.4771 17.4788C14.9571 17.2291 15.1368 16.8981 15.2214 16.1079L15.2764 15.5946H14.7311H14.186V15.9827C14.186 16.4904 14.0871 16.6671 13.8029 16.6671C13.4886 16.6671 13.4199 16.4891 13.4199 15.6762V14.9817H14.3392H15.2585L15.2539 14.3113C15.2455 13.073 15.1139 12.6898 14.5698 12.3194C14.2743 12.1183 13.6061 12.0868 13.2283 12.2561ZM5.09992 12.3307C5.07732 12.3896 5.06981 13.4685 5.08314 14.7284C5.10498 16.781 5.12183 17.0408 5.24556 17.2295C5.53002 17.6632 6.03282 17.6474 6.62058 17.1862L6.90787 16.9607V17.239V17.5171L7.3867 17.4944L7.86552 17.4715V14.8668V12.262L7.3867 12.2391L6.90787 12.2164V14.2051V16.1938L6.67214 16.3922C6.11288 16.8628 6.06515 16.6951 6.06515 14.2589V12.2237H5.6031C5.27812 12.2237 5.1288 12.2555 5.09992 12.3307ZM9.95318 13.1491C9.83214 13.2197 9.81911 13.3862 9.81911 14.8679C9.81911 16.4115 9.82785 16.5132 9.96728 16.5878C10.1875 16.7057 10.4858 16.6838 10.5387 16.5459C10.6199 16.3346 10.5907 13.3729 10.5059 13.2146C10.4201 13.0542 10.1675 13.0243 9.95318 13.1491ZM13.4991 13.2146C13.4556 13.2961 13.4199 13.5374 13.4199 13.7508V14.1389H13.8029H14.186V13.723C14.186 13.2598 14.0611 13.0664 13.7618 13.0664C13.659 13.0664 13.5437 13.1314 13.4991 13.2146Z" fill="#121212"/>
</svg>
