<svg width="19" height="20" viewBox="0 0 19 20" fill="none" xmlns="http://www.w3.org/2000/svg">
<path fill-rule="evenodd" clip-rule="evenodd" d="M3.83338 0.778204C2.90637 0.885573 1.95051 1.37805 1.32277 2.07179C0.830348 2.61604 0.51937 3.20337 0.336537 3.93455L0.225586 4.37831V10.0859C0.225586 15.7907 0.225634 15.7936 0.329516 16.1994C0.688973 17.6039 1.61193 18.6352 2.97902 19.16C3.59873 19.3978 3.64515 19.3995 9.53349 19.3985C12.9285 19.3979 15.1597 19.3793 15.3661 19.3499C16.9569 19.1233 18.2991 17.9085 18.7415 16.2949L18.8528 15.8889V10.0381V4.18726L18.721 3.7671C18.4692 2.96446 18.1268 2.40808 17.5521 1.86799C16.8875 1.24341 16.0708 0.865847 15.1815 0.772138C14.6385 0.71492 4.33226 0.720412 3.83338 0.778204ZM6.25611 3.06887C5.4646 3.13425 4.61677 3.43028 4.09727 3.8227C3.31426 4.41408 2.86644 5.13882 2.6261 6.20377C2.52275 6.66172 2.52064 6.73761 2.52064 10.062C2.52064 13.3864 2.52275 13.4623 2.6261 13.9202C3.05524 15.8215 4.32103 16.8907 6.34103 17.0581C7.08263 17.1195 11.9957 17.1195 12.7373 17.0581C14.7573 16.8907 16.0231 15.8215 16.4522 13.9202C16.5556 13.4623 16.5577 13.3864 16.5577 10.062C16.5577 6.73761 16.5556 6.66172 16.4522 6.20377C16.0231 4.30247 14.7573 3.23327 12.7373 3.06591C12.0676 3.01046 6.93504 3.0128 6.25611 3.06887ZM6.8645 4.30824C5.6609 4.36255 5.11823 4.55102 4.55659 5.10979C3.85478 5.80816 3.73963 6.50596 3.73963 10.062C3.73963 13.5812 3.85545 14.303 4.53033 14.99C5.11727 15.5874 5.60764 15.7512 7.00779 15.8176C8.2346 15.8758 10.8437 15.8758 12.0706 15.8176C13.4707 15.7512 13.9611 15.5874 14.548 14.99C15.2229 14.303 15.3387 13.5812 15.3387 10.062C15.3387 6.54279 15.2229 5.82096 14.548 5.134C13.9611 4.53655 13.4707 4.37272 12.0706 4.30633C10.9915 4.25513 8.01771 4.25628 6.8645 4.30824ZM13.0497 5.48591C12.6788 5.6175 12.3938 6.05996 12.4533 6.41187C12.4896 6.62661 12.6362 6.86002 12.8208 6.99672C13.0051 7.13317 13.4305 7.16126 13.671 7.05279C14.1447 6.83915 14.2889 6.13667 13.9393 5.74516C13.7418 5.52402 13.3029 5.39607 13.0497 5.48591ZM8.58393 6.56848C7.0022 7.00489 5.93381 8.41329 5.93381 10.062C5.93381 11.4492 6.63811 12.6138 7.87424 13.2704C8.88904 13.8094 10.1893 13.8094 11.2041 13.2704C12.4402 12.6138 13.1445 11.4492 13.1445 10.062C13.1445 8.39376 12.0398 6.9619 10.4387 6.55506C9.89629 6.41727 9.11151 6.42291 8.58393 6.56848ZM8.98991 7.77366C8.53612 7.89388 8.14118 8.12643 7.84725 8.44639C6.94159 9.43224 6.95969 10.7728 7.89138 11.7102C8.226 12.0469 8.55508 12.2357 9.01188 12.353C9.78161 12.5509 10.5884 12.3124 11.187 11.7102C11.9409 10.9516 12.1032 9.94836 11.6272 8.98806C11.4583 8.64718 10.949 8.13694 10.6138 7.97278C10.0671 7.70498 9.50794 7.63639 8.98991 7.77366Z" fill="#121212"/>
</svg>
