<svg width="188" height="60" viewBox="0 0 188 60" fill="none" xmlns="http://www.w3.org/2000/svg">
<rect x="0.889648" y="0.9375" width="187" height="59" rx="10" fill="white"/>
<path d="M59.4131 19.9375L59.4248 18.7246H61.2295C61.7529 18.7246 62.1904 18.6113 62.542 18.3848C62.8936 18.1582 63.1592 17.834 63.3389 17.4121C63.5186 16.9863 63.6084 16.4785 63.6084 15.8887V15.4434C63.6084 14.8379 63.5186 14.3262 63.3389 13.9082C63.1631 13.4902 62.9014 13.1719 62.5537 12.9531C62.2061 12.7344 61.7822 12.625 61.2822 12.625H59.3779V11.4062H61.2822C62.0439 11.4062 62.7119 11.5742 63.2861 11.9102C63.8643 12.2461 64.3154 12.7168 64.6396 13.3223C64.9639 13.9277 65.126 14.6387 65.126 15.4551V15.8887C65.126 16.709 64.9639 17.4219 64.6396 18.0273C64.3154 18.6328 63.8604 19.1035 63.2744 19.4395C62.6924 19.7715 62.0107 19.9375 61.2295 19.9375H59.4131ZM60.2568 19.9375H58.7451V11.4062H60.2568V19.9375ZM66.2407 16.709C66.2407 16.0918 66.3579 15.541 66.5922 15.0566C66.8266 14.5723 67.1625 14.1895 67.6 13.9082C68.0414 13.623 68.5707 13.4805 69.1879 13.4805C69.8129 13.4805 70.3461 13.623 70.7875 13.9082C71.2289 14.1895 71.5649 14.5723 71.7954 15.0566C72.0297 15.541 72.1469 16.0918 72.1469 16.709V16.832C72.1469 17.4453 72.0297 17.9961 71.7954 18.4844C71.5649 18.9688 71.2289 19.3516 70.7875 19.6328C70.35 19.9141 69.8207 20.0547 69.1996 20.0547C68.5786 20.0547 68.0473 19.9141 67.6059 19.6328C67.1645 19.3516 66.8266 18.9688 66.5922 18.4844C66.3579 17.9961 66.2407 17.4453 66.2407 16.832V16.709ZM67.6938 16.832C67.6938 17.207 67.7465 17.5508 67.852 17.8633C67.9575 18.1719 68.1196 18.4199 68.3383 18.6074C68.561 18.7949 68.8481 18.8887 69.1996 18.8887C69.5473 18.8887 69.8305 18.7949 70.0493 18.6074C70.2719 18.4199 70.434 18.1719 70.5356 17.8633C70.6411 17.5508 70.6938 17.207 70.6938 16.832V16.709C70.6938 16.3379 70.6411 15.9961 70.5356 15.6836C70.434 15.3711 70.2719 15.1211 70.0493 14.9336C69.8266 14.7422 69.5395 14.6465 69.1879 14.6465C68.8403 14.6465 68.5551 14.7422 68.3325 14.9336C68.1137 15.1211 67.9516 15.3711 67.8461 15.6836C67.7446 15.9961 67.6938 16.3379 67.6938 16.709V16.832ZM76.5663 13.5977H77.4921L77.246 15.1445L75.7753 19.9375H74.955L75.1073 18.4902L76.5663 13.5977ZM75.4237 18.5078L75.4999 19.9375H74.58L72.869 13.5977H74.287L75.4237 18.5078ZM79.9296 13.5977H81.3417L79.6366 19.9375H78.7167L78.8339 18.4492L79.9296 13.5977ZM79.0917 18.4375L79.2616 19.9375H78.4354L76.9471 15.1387L76.7069 13.5977H77.6503L79.0917 18.4375ZM83.7923 19.9375H82.3392V13.5977H83.7044L83.7923 14.9512V19.9375ZM83.0657 16.5449C83.0696 15.9316 83.1771 15.3965 83.388 14.9395C83.5989 14.4785 83.8939 14.1211 84.2728 13.8672C84.6517 13.6094 85.0931 13.4805 85.597 13.4805C86.0071 13.4805 86.3626 13.5586 86.6634 13.7148C86.9642 13.8672 87.1986 14.1172 87.3665 14.4648C87.5345 14.8086 87.6185 15.2715 87.6185 15.8535V19.9375H86.1595V15.8418C86.1595 15.5488 86.1165 15.3164 86.0306 15.1445C85.9486 14.9727 85.8236 14.8516 85.6556 14.7812C85.4915 14.707 85.2904 14.6699 85.0521 14.6699C84.8099 14.6699 84.595 14.7188 84.4075 14.8164C84.2239 14.9102 84.0657 15.043 83.9329 15.2148C83.804 15.3867 83.7044 15.5859 83.6341 15.8125C83.5677 16.0391 83.5345 16.2812 83.5345 16.5391L83.0657 16.5449ZM90.655 19.9375H89.2019V10.9375H90.655V19.9375ZM91.9807 16.709C91.9807 16.0918 92.0979 15.541 92.3322 15.0566C92.5666 14.5723 92.9025 14.1895 93.34 13.9082C93.7814 13.623 94.3107 13.4805 94.9279 13.4805C95.5529 13.4805 96.0861 13.623 96.5275 13.9082C96.9689 14.1895 97.3049 14.5723 97.5354 15.0566C97.7697 15.541 97.8869 16.0918 97.8869 16.709V16.832C97.8869 17.4453 97.7697 17.9961 97.5354 18.4844C97.3049 18.9688 96.9689 19.3516 96.5275 19.6328C96.09 19.9141 95.5607 20.0547 94.9396 20.0547C94.3186 20.0547 93.7873 19.9141 93.3459 19.6328C92.9045 19.3516 92.5666 18.9688 92.3322 18.4844C92.0979 17.9961 91.9807 17.4453 91.9807 16.832V16.709ZM93.4338 16.832C93.4338 17.207 93.4865 17.5508 93.592 17.8633C93.6975 18.1719 93.8596 18.4199 94.0783 18.6074C94.301 18.7949 94.5881 18.8887 94.9396 18.8887C95.2873 18.8887 95.5705 18.7949 95.7893 18.6074C96.0119 18.4199 96.174 18.1719 96.2756 17.8633C96.3811 17.5508 96.4338 17.207 96.4338 16.832V16.709C96.4338 16.3379 96.3811 15.9961 96.2756 15.6836C96.174 15.3711 96.0119 15.1211 95.7893 14.9336C95.5666 14.7422 95.2795 14.6465 94.9279 14.6465C94.5803 14.6465 94.2951 14.7422 94.0725 14.9336C93.8537 15.1211 93.6916 15.3711 93.5861 15.6836C93.4846 15.9961 93.4338 16.3379 93.4338 16.709V16.832ZM102.687 15.6543C102.687 15.3262 102.595 15.0645 102.412 14.8691C102.232 14.6738 101.959 14.5762 101.591 14.5762C101.373 14.5762 101.181 14.6152 101.017 14.6934C100.853 14.7676 100.726 14.8691 100.636 14.998C100.547 15.127 100.502 15.2734 100.502 15.4375H99.0485C99.0485 15.0977 99.1559 14.7793 99.3707 14.4824C99.5856 14.1816 99.8883 13.9395 100.279 13.7559C100.673 13.5723 101.138 13.4805 101.673 13.4805C102.15 13.4805 102.574 13.5605 102.945 13.7207C103.316 13.8809 103.607 14.123 103.818 14.4473C104.033 14.7715 104.14 15.1777 104.14 15.666V18.4609C104.14 18.7578 104.162 19.0195 104.205 19.2461C104.248 19.4727 104.308 19.6699 104.386 19.8379V19.9375H102.898C102.832 19.7852 102.779 19.5879 102.74 19.3457C102.705 19.1035 102.687 18.8672 102.687 18.6367V15.6543ZM102.91 16.9727H101.914C101.398 16.9727 101.009 17.0684 100.748 17.2598C100.49 17.4473 100.361 17.7031 100.361 18.0273C100.361 18.2773 100.447 18.4863 100.619 18.6543C100.791 18.8184 101.033 18.9004 101.345 18.9004C101.631 18.9004 101.879 18.8438 102.089 18.7305C102.304 18.6133 102.472 18.4707 102.593 18.3027C102.714 18.1309 102.777 17.9707 102.781 17.8223L103.244 18.4727C103.197 18.6328 103.117 18.8047 103.004 18.9883C102.894 19.168 102.748 19.3398 102.564 19.5039C102.384 19.6641 102.17 19.7969 101.92 19.9023C101.673 20.0039 101.386 20.0547 101.058 20.0547C100.644 20.0547 100.275 19.9727 99.9508 19.8086C99.6266 19.6445 99.3707 19.4199 99.1832 19.1348C98.9996 18.8457 98.9079 18.5215 98.9079 18.1621C98.9079 17.4902 99.1598 16.9746 99.6637 16.6152C100.168 16.2559 100.882 16.0762 101.808 16.0762H102.898L102.91 16.9727ZM109.521 10.9375H110.974V19.9375H109.655L109.521 18.6074V10.9375ZM105.407 16.7148C105.407 16.0742 105.507 15.5117 105.706 15.0273C105.909 14.5391 106.196 14.1602 106.567 13.8906C106.939 13.6172 107.384 13.4805 107.903 13.4805C108.415 13.4805 108.843 13.6133 109.187 13.8789C109.53 14.1445 109.8 14.5137 109.995 14.9863C110.194 15.4551 110.327 16 110.394 16.6211V16.9609C110.327 17.5625 110.196 18.0957 110.001 18.5605C109.806 19.0254 109.534 19.3906 109.187 19.6562C108.843 19.9219 108.411 20.0547 107.892 20.0547C107.38 20.0547 106.939 19.916 106.567 19.6387C106.196 19.3574 105.909 18.9746 105.706 18.4902C105.507 18.0059 105.407 17.4551 105.407 16.8379V16.7148ZM106.86 16.8379C106.86 17.2129 106.907 17.5547 107.001 17.8633C107.095 18.168 107.243 18.4121 107.446 18.5957C107.653 18.7754 107.925 18.8652 108.261 18.8652C108.577 18.8652 108.837 18.7969 109.04 18.6602C109.247 18.5195 109.407 18.3301 109.521 18.0918C109.638 17.8535 109.718 17.5859 109.761 17.2891V16.2988C109.733 16.0645 109.685 15.8477 109.614 15.6484C109.544 15.4492 109.448 15.2773 109.327 15.1328C109.21 14.9883 109.064 14.875 108.888 14.793C108.712 14.7109 108.507 14.6699 108.273 14.6699C107.937 14.6699 107.663 14.7617 107.452 14.9453C107.245 15.125 107.095 15.3711 107.001 15.6836C106.907 15.9922 106.86 16.3359 106.86 16.7148V16.8379ZM115.283 16.709C115.283 16.0918 115.4 15.541 115.635 15.0566C115.869 14.5723 116.205 14.1895 116.643 13.9082C117.084 13.623 117.613 13.4805 118.23 13.4805C118.855 13.4805 119.389 13.623 119.83 13.9082C120.271 14.1895 120.607 14.5723 120.838 15.0566C121.072 15.541 121.189 16.0918 121.189 16.709V16.832C121.189 17.4453 121.072 17.9961 120.838 18.4844C120.607 18.9688 120.271 19.3516 119.83 19.6328C119.393 19.9141 118.863 20.0547 118.242 20.0547C117.621 20.0547 117.09 19.9141 116.648 19.6328C116.207 19.3516 115.869 18.9688 115.635 18.4844C115.4 17.9961 115.283 17.4453 115.283 16.832V16.709ZM116.736 16.832C116.736 17.207 116.789 17.5508 116.894 17.8633C117 18.1719 117.162 18.4199 117.381 18.6074C117.603 18.7949 117.891 18.8887 118.242 18.8887C118.59 18.8887 118.873 18.7949 119.092 18.6074C119.314 18.4199 119.477 18.1719 119.578 17.8633C119.684 17.5508 119.736 17.207 119.736 16.832V16.709C119.736 16.3379 119.684 15.9961 119.578 15.6836C119.477 15.3711 119.314 15.1211 119.092 14.9336C118.869 14.7422 118.582 14.6465 118.23 14.6465C117.883 14.6465 117.598 14.7422 117.375 14.9336C117.156 15.1211 116.994 15.3711 116.889 15.6836C116.787 15.9961 116.736 16.3379 116.736 16.709V16.832ZM123.869 19.9375H122.415V13.5977H123.781L123.869 14.9512V19.9375ZM123.142 16.5449C123.146 15.9316 123.253 15.3965 123.464 14.9395C123.675 14.4785 123.97 14.1211 124.349 13.8672C124.728 13.6094 125.169 13.4805 125.673 13.4805C126.083 13.4805 126.439 13.5586 126.74 13.7148C127.04 13.8672 127.275 14.1172 127.443 14.4648C127.611 14.8086 127.695 15.2715 127.695 15.8535V19.9375H126.236V15.8418C126.236 15.5488 126.193 15.3164 126.107 15.1445C126.025 14.9727 125.9 14.8516 125.732 14.7812C125.568 14.707 125.367 14.6699 125.128 14.6699C124.886 14.6699 124.671 14.7188 124.484 14.8164C124.3 14.9102 124.142 15.043 124.009 15.2148C123.88 15.3867 123.781 15.5859 123.71 15.8125C123.644 16.0391 123.611 16.2812 123.611 16.5391L123.142 16.5449ZM135.168 14.6699H131.571V13.5977H135.168V14.6699ZM134.043 12.0449V18.1504C134.043 18.3457 134.071 18.4941 134.125 18.5957C134.18 18.6934 134.258 18.7598 134.36 18.7949C134.461 18.8301 134.578 18.8477 134.711 18.8477C134.809 18.8477 134.903 18.8418 134.992 18.8301C135.082 18.8184 135.155 18.8066 135.209 18.7949V19.9141C135.092 19.9531 134.955 19.9863 134.799 20.0137C134.647 20.041 134.467 20.0547 134.26 20.0547C133.936 20.0547 133.647 19.9961 133.393 19.8789C133.143 19.7617 132.946 19.5723 132.801 19.3105C132.66 19.0449 132.59 18.6934 132.59 18.2559V12.0449H134.043ZM137.73 19.9375H136.277V10.9375H137.73V19.9375ZM137.009 16.5449C137.013 15.9551 137.117 15.4297 137.32 14.9688C137.527 14.5078 137.816 14.1445 138.187 13.8789C138.558 13.6133 138.992 13.4805 139.488 13.4805C139.906 13.4805 140.269 13.5605 140.578 13.7207C140.89 13.877 141.133 14.1309 141.304 14.4824C141.476 14.8301 141.562 15.2949 141.562 15.877V19.9375H140.103V15.8652C140.103 15.5684 140.06 15.332 139.974 15.1562C139.888 14.9805 139.761 14.8555 139.593 14.7812C139.429 14.707 139.228 14.6699 138.99 14.6699C138.74 14.6699 138.521 14.7188 138.334 14.8164C138.146 14.9102 137.988 15.043 137.859 15.2148C137.73 15.3867 137.634 15.5859 137.572 15.8125C137.509 16.0391 137.478 16.2812 137.478 16.5391L137.009 16.5449ZM145.847 20.0547C145.218 20.0547 144.675 19.9199 144.218 19.6504C143.761 19.377 143.409 19.0098 143.163 18.5488C142.917 18.084 142.794 17.5645 142.794 16.9902V16.75C142.794 16.0898 142.919 15.5156 143.169 15.0273C143.419 14.5352 143.761 14.1543 144.194 13.8848C144.632 13.6152 145.126 13.4805 145.677 13.4805C146.286 13.4805 146.792 13.6133 147.194 13.8789C147.597 14.1406 147.898 14.5059 148.097 14.9746C148.296 15.4395 148.396 15.9785 148.396 16.5918V17.2188H143.491V16.1699H146.96V16.0586C146.952 15.8125 146.905 15.582 146.819 15.3672C146.734 15.1523 146.597 14.9785 146.409 14.8457C146.226 14.7129 145.98 14.6465 145.671 14.6465C145.362 14.6465 145.103 14.7344 144.892 14.9102C144.681 15.082 144.521 15.3262 144.411 15.6426C144.302 15.9551 144.247 16.3242 144.247 16.75V16.9902C144.247 17.3496 144.314 17.6719 144.446 17.957C144.579 18.2422 144.773 18.4688 145.027 18.6367C145.28 18.8008 145.583 18.8828 145.935 18.8828C146.275 18.8828 146.575 18.8164 146.837 18.6836C147.103 18.5508 147.331 18.3594 147.523 18.1094L148.284 18.8711C148.085 19.1719 147.784 19.4453 147.382 19.6914C146.984 19.9336 146.472 20.0547 145.847 20.0547Z" fill="#0442BF"/>
<path d="M61.542 43.9375H57.9434L63.7549 28.2969H66.0322L65.71 31.2617L61.542 43.9375ZM64.9473 31.2617L64.5928 28.2969H66.8809L72.7246 43.9375H69.126L64.9473 31.2617ZM69.0186 40.8223H60.7256V38.0938H69.0186V40.8223ZM77.1826 48.4062H73.9385V32.3145H76.9463L77.1826 34.5488V48.4062ZM84.4873 38.2227C84.4873 39.347 84.3118 40.3568 83.9609 41.252C83.6172 42.1471 83.1087 42.8561 82.4355 43.3789C81.7695 43.8945 80.946 44.1523 79.9648 44.1523C79.0124 44.1523 78.2282 43.8945 77.6123 43.3789C77.0036 42.8561 76.5309 42.1543 76.1943 41.2734C75.8577 40.3926 75.6143 39.4186 75.4639 38.3516V38.0186C75.6071 36.8799 75.847 35.8665 76.1836 34.9785C76.5273 34.0833 77.0036 33.3815 77.6123 32.873C78.2282 32.3574 79.0088 32.0996 79.9541 32.0996C80.9352 32.0996 81.7624 32.3467 82.4355 32.8408C83.1087 33.3278 83.6172 34.0153 83.9609 34.9033C84.3118 35.7842 84.4873 36.8154 84.4873 37.9971V38.2227ZM81.2432 37.9971C81.2432 37.3669 81.1715 36.8083 81.0283 36.3213C80.8923 35.8271 80.6667 35.4404 80.3516 35.1611C80.0365 34.8747 79.6175 34.7314 79.0947 34.7314C78.6937 34.7314 78.3499 34.7959 78.0635 34.9248C77.7842 35.0465 77.5514 35.2292 77.3652 35.4727C77.1862 35.7161 77.0501 36.0169 76.957 36.375C76.8711 36.7259 76.821 37.1341 76.8066 37.5996V38.7812C76.8353 39.3112 76.9248 39.7839 77.0752 40.1992C77.2327 40.6146 77.4762 40.944 77.8057 41.1875C78.1351 41.4238 78.5719 41.542 79.1162 41.542C79.6462 41.542 80.0651 41.3916 80.373 41.0908C80.681 40.79 80.903 40.389 81.0391 39.8877C81.1751 39.3792 81.2432 38.8242 81.2432 38.2227V37.9971ZM89.5791 48.4062H86.335V32.3145H89.3428L89.5791 34.5488V48.4062ZM96.8838 38.2227C96.8838 39.347 96.7083 40.3568 96.3574 41.252C96.0137 42.1471 95.5052 42.8561 94.832 43.3789C94.166 43.8945 93.3424 44.1523 92.3613 44.1523C91.4089 44.1523 90.6247 43.8945 90.0088 43.3789C89.4001 42.8561 88.9274 42.1543 88.5908 41.2734C88.2542 40.3926 88.0107 39.4186 87.8604 38.3516V38.0186C88.0036 36.8799 88.2435 35.8665 88.5801 34.9785C88.9238 34.0833 89.4001 33.3815 90.0088 32.873C90.6247 32.3574 91.4053 32.0996 92.3506 32.0996C93.3317 32.0996 94.1589 32.3467 94.832 32.8408C95.5052 33.3278 96.0137 34.0153 96.3574 34.9033C96.7083 35.7842 96.8838 36.8154 96.8838 37.9971V38.2227ZM93.6396 37.9971C93.6396 37.3669 93.568 36.8083 93.4248 36.3213C93.2887 35.8271 93.0632 35.4404 92.748 35.1611C92.4329 34.8747 92.014 34.7314 91.4912 34.7314C91.0902 34.7314 90.7464 34.7959 90.46 34.9248C90.1807 35.0465 89.9479 35.2292 89.7617 35.4727C89.5827 35.7161 89.4466 36.0169 89.3535 36.375C89.2676 36.7259 89.2174 37.1341 89.2031 37.5996V38.7812C89.2318 39.3112 89.3213 39.7839 89.4717 40.1992C89.6292 40.6146 89.8727 40.944 90.2021 41.1875C90.5316 41.4238 90.9684 41.542 91.5127 41.542C92.0426 41.542 92.4616 41.3916 92.7695 41.0908C93.0775 40.79 93.2995 40.389 93.4355 39.8877C93.5716 39.3792 93.6396 38.8242 93.6396 38.2227V37.9971ZM102.147 43.9375H98.8926V27.4375H102.147V43.9375ZM110.064 44.1523C108.84 44.1523 107.791 43.8981 106.917 43.3896C106.05 42.8812 105.384 42.2008 104.919 41.3486C104.461 40.4964 104.231 39.5547 104.231 38.5234V38.1045C104.231 36.9443 104.45 35.9131 104.887 35.0107C105.331 34.1012 105.961 33.3887 106.777 32.873C107.594 32.3574 108.568 32.0996 109.699 32.0996C110.824 32.0996 111.769 32.3359 112.535 32.8086C113.301 33.2812 113.882 33.9473 114.275 34.8066C114.669 35.6589 114.866 36.6615 114.866 37.8145V39.1895H105.596V37.0088H111.676V36.751C111.676 36.3499 111.604 35.9954 111.461 35.6875C111.318 35.3796 111.099 35.1396 110.806 34.9678C110.519 34.7959 110.143 34.71 109.678 34.71C109.148 34.71 108.722 34.8604 108.399 35.1611C108.077 35.4619 107.841 35.8665 107.69 36.375C107.547 36.8835 107.476 37.46 107.476 38.1045V38.5234C107.476 39.1178 107.587 39.6406 107.809 40.0918C108.031 40.543 108.349 40.8975 108.765 41.1553C109.18 41.4059 109.681 41.5312 110.269 41.5312C110.82 41.5312 111.336 41.431 111.815 41.2305C112.295 41.0228 112.703 40.7005 113.04 40.2637L114.608 42.0576C114.243 42.5804 113.677 43.0602 112.911 43.4971C112.152 43.9339 111.203 44.1523 110.064 44.1523ZM130.335 39.8125C130.335 39.4616 130.26 39.1572 130.109 38.8994C129.959 38.6416 129.669 38.3981 129.239 38.1689C128.817 37.9326 128.19 37.682 127.359 37.417C126.658 37.1878 125.988 36.93 125.351 36.6436C124.72 36.3499 124.162 36.0098 123.675 35.623C123.188 35.2363 122.805 34.7852 122.525 34.2695C122.246 33.7539 122.106 33.1523 122.106 32.4648C122.106 31.584 122.357 30.8177 122.858 30.166C123.36 29.5072 124.047 28.9951 124.921 28.6299C125.802 28.2646 126.808 28.082 127.939 28.082C129.1 28.082 130.113 28.2861 130.979 28.6943C131.846 29.1025 132.516 29.6719 132.988 30.4023C133.468 31.1257 133.708 31.9635 133.708 32.916H130.346C130.346 32.4935 130.256 32.1211 130.077 31.7988C129.898 31.4694 129.626 31.2152 129.261 31.0361C128.903 30.8499 128.444 30.7568 127.886 30.7568C127.349 30.7568 126.901 30.8356 126.543 30.9932C126.185 31.1507 125.916 31.3584 125.737 31.6162C125.565 31.874 125.479 32.1641 125.479 32.4863C125.479 32.8229 125.598 33.1165 125.834 33.3672C126.07 33.6178 126.414 33.8506 126.865 34.0654C127.316 34.2731 127.864 34.4772 128.509 34.6777C129.647 35.0215 130.604 35.4261 131.377 35.8916C132.15 36.3571 132.73 36.9085 133.117 37.5459C133.511 38.1761 133.708 38.9245 133.708 39.791C133.708 40.7077 133.472 41.4919 132.999 42.1436C132.534 42.7952 131.875 43.293 131.022 43.6367C130.17 43.9805 129.168 44.1523 128.015 44.1523C127.227 44.1523 126.453 44.0521 125.694 43.8516C124.942 43.6439 124.258 43.3288 123.643 42.9062C123.034 42.4766 122.547 41.9359 122.182 41.2842C121.816 40.6325 121.634 39.859 121.634 38.9639H125.018C125.018 39.4294 125.086 39.8232 125.222 40.1455C125.365 40.4606 125.565 40.7184 125.823 40.9189C126.088 41.1195 126.403 41.2663 126.769 41.3594C127.141 41.4453 127.556 41.4883 128.015 41.4883C128.552 41.4883 128.989 41.4167 129.325 41.2734C129.669 41.123 129.923 40.9225 130.088 40.6719C130.253 40.4141 130.335 40.1276 130.335 39.8125ZM141.453 34.6777H134.589V32.3145H141.453V34.6777ZM139.487 29.4463V40.3066C139.487 40.6217 139.527 40.8652 139.605 41.0371C139.691 41.209 139.824 41.3271 140.003 41.3916C140.182 41.4561 140.404 41.4883 140.669 41.4883C140.862 41.4883 141.034 41.4811 141.185 41.4668C141.335 41.4525 141.464 41.4346 141.571 41.4131L141.561 43.8623C141.296 43.9554 141.006 44.027 140.69 44.0771C140.382 44.1273 140.035 44.1523 139.648 44.1523C138.954 44.1523 138.349 44.0378 137.833 43.8086C137.325 43.5723 136.931 43.1999 136.651 42.6914C136.379 42.1758 136.243 41.5026 136.243 40.6719V29.4463H139.487ZM142.398 38.0186C142.398 36.887 142.613 35.8773 143.043 34.9893C143.473 34.0941 144.099 33.3887 144.923 32.873C145.746 32.3574 146.745 32.0996 147.92 32.0996C149.109 32.0996 150.115 32.3574 150.938 32.873C151.769 33.3887 152.396 34.0941 152.818 34.9893C153.248 35.8773 153.463 36.887 153.463 38.0186V38.2441C153.463 39.3685 153.248 40.3783 152.818 41.2734C152.396 42.1686 151.773 42.874 150.949 43.3896C150.126 43.8981 149.123 44.1523 147.941 44.1523C146.76 44.1523 145.754 43.8981 144.923 43.3896C144.099 42.874 143.473 42.1686 143.043 41.2734C142.613 40.3783 142.398 39.3685 142.398 38.2441V38.0186ZM145.653 38.2441C145.653 38.8529 145.725 39.4079 145.868 39.9092C146.019 40.4105 146.258 40.8079 146.588 41.1016C146.924 41.3952 147.376 41.542 147.941 41.542C148.5 41.542 148.944 41.3952 149.273 41.1016C149.61 40.8079 149.85 40.4105 149.993 39.9092C150.144 39.4079 150.219 38.8529 150.219 38.2441V38.0186C150.219 37.4242 150.144 36.8763 149.993 36.375C149.85 35.8665 149.61 35.4619 149.273 35.1611C148.944 34.8604 148.493 34.71 147.92 34.71C147.361 34.71 146.914 34.8604 146.577 35.1611C146.248 35.4619 146.011 35.8665 145.868 36.375C145.725 36.8763 145.653 37.4242 145.653 38.0186V38.2441ZM158.565 43.9375H155.321V32.3145H158.372L158.565 34.9893V43.9375ZM161.96 35.3652C161.802 35.3438 161.616 35.3258 161.401 35.3115C161.187 35.29 160.993 35.2793 160.821 35.2793C160.256 35.2793 159.79 35.3688 159.425 35.5479C159.06 35.7197 158.787 35.9775 158.608 36.3213C158.429 36.665 158.333 37.0911 158.318 37.5996L157.685 37.3203C157.685 36.3105 157.813 35.4118 158.071 34.624C158.329 33.8363 158.709 33.2204 159.21 32.7764C159.711 32.3252 160.32 32.0996 161.036 32.0996C161.201 32.0996 161.373 32.1104 161.552 32.1318C161.738 32.1533 161.888 32.1891 162.003 32.2393L161.96 35.3652ZM168.846 44.1523C167.621 44.1523 166.572 43.8981 165.698 43.3896C164.832 42.8812 164.166 42.2008 163.7 41.3486C163.242 40.4964 163.013 39.5547 163.013 38.5234V38.1045C163.013 36.9443 163.231 35.9131 163.668 35.0107C164.112 34.1012 164.742 33.3887 165.559 32.873C166.375 32.3574 167.349 32.0996 168.48 32.0996C169.605 32.0996 170.55 32.3359 171.316 32.8086C172.083 33.2812 172.663 33.9473 173.057 34.8066C173.451 35.6589 173.647 36.6615 173.647 37.8145V39.1895H164.377V37.0088H170.457V36.751C170.457 36.3499 170.385 35.9954 170.242 35.6875C170.099 35.3796 169.881 35.1396 169.587 34.9678C169.3 34.7959 168.924 34.71 168.459 34.71C167.929 34.71 167.503 34.8604 167.181 35.1611C166.858 35.4619 166.622 35.8665 166.472 36.375C166.328 36.8835 166.257 37.46 166.257 38.1045V38.5234C166.257 39.1178 166.368 39.6406 166.59 40.0918C166.812 40.543 167.131 40.8975 167.546 41.1553C167.961 41.4059 168.463 41.5312 169.05 41.5312C169.601 41.5312 170.117 41.431 170.597 41.2305C171.076 41.0228 171.485 40.7005 171.821 40.2637L173.39 42.0576C173.024 42.5804 172.459 43.0602 171.692 43.4971C170.933 43.9339 169.984 44.1523 168.846 44.1523Z" fill="#0442BF"/>
<path fill-rule="evenodd" clip-rule="evenodd" d="M36.8209 12.4157C35.7122 12.7823 35.07 13.0807 34.3283 13.5742C32.936 14.5006 32.1188 15.5155 31.4131 17.1943C30.9725 18.2423 30.7676 19.1409 30.6185 20.6778L30.5699 21.1787L30.8568 21.1784C31.2657 21.178 32.4872 20.9739 32.9248 20.8329C33.8908 20.5216 35.0457 19.6459 36.0407 18.47C37.1207 17.1938 37.8083 15.639 38.0608 13.9025C38.2218 12.7947 38.1503 12.17 37.8599 12.1478C37.7578 12.14 37.2903 12.2606 36.8209 12.4157ZM37.1549 20.7012C36.2407 20.8405 35.7293 20.9719 34.2631 21.4445C32.9319 21.8736 31.7704 22.1434 31.2551 22.1434C30.8133 22.1434 29.7265 21.9102 28.1382 21.4745C26.2925 20.9682 25.3182 20.8076 24.0911 20.8076C21.3681 20.8076 19.2776 21.9087 17.4829 24.2883C17.0033 24.9243 16.1578 26.5221 15.9282 27.2269C15.3691 28.9425 15.1539 30.3862 15.1524 32.4335C15.1509 34.1873 15.2707 35.2735 15.6453 36.906C16.5535 40.864 19.0971 45.681 21.4681 47.9325C22.4905 48.9035 23.456 49.4359 24.6047 49.6622C25.1471 49.769 25.257 49.7687 25.9099 49.6572C26.6827 49.5253 27.2879 49.3423 28.5321 48.8641C30.7185 48.0239 31.9589 48.0019 34.3348 48.7612C36.1432 49.3391 36.7668 49.5076 37.4635 49.6062C38.0525 49.6896 38.2218 49.6865 38.7465 49.5831C40.7037 49.1975 42.4493 47.5837 44.5059 44.2585C45.2252 43.0954 46.1147 41.2413 46.4611 40.1831C46.5467 39.9213 46.6168 39.6802 46.6168 39.6473C46.6168 39.6145 46.3633 39.4705 46.0536 39.3274C44.334 38.5329 42.7521 36.6791 41.9955 34.572C41.6881 33.7158 41.5472 32.8229 41.5449 31.7167C41.5394 28.9834 42.6141 26.8932 45.162 24.6824L45.5995 24.3027L45.1514 23.7982C43.4666 21.9016 41.7277 20.9457 39.4554 20.6673C38.6098 20.5636 37.9981 20.5727 37.1549 20.7012Z" fill="#0442BF"/>
</svg>
