<svg width="192" height="60" viewBox="0 0 192 60" fill="none" xmlns="http://www.w3.org/2000/svg">
<rect x="0.889648" y="0.9375" width="191" height="59" rx="10" fill="white"/>
<path d="M15.1535 13.6142V13.5996L15.1527 13.585C15.1236 13.0887 15.2448 12.5983 15.4957 12.1759L33.3115 29.9917V30.0133L15.4965 47.8404C15.2466 47.4173 15.1253 46.9272 15.1528 46.4307L15.1535 46.4169V46.4031V13.6142Z" fill="#0442BF" stroke="#0442BF"/>
<path d="M39.9361 36.3452L33.8115 30.2207V29.785L39.9361 23.6729L40.073 23.7475L47.3304 27.8679C49.4093 29.0381 49.4093 30.9676 47.3304 32.1502L40.073 36.2706L39.9361 36.3452Z" fill="#0442BF"/>
<path d="M40.0727 36.2705L33.8485 30.0464L15.3379 48.4824C15.7646 48.8331 16.2958 49.0321 16.8479 49.0478C17.4 49.0636 17.9417 48.8953 18.3877 48.5695L40.0354 36.2705" fill="#0442BF"/>
<path d="M40.0727 36.2705L33.8485 30.0464L15.3379 48.4824C15.7646 48.8331 16.2958 49.0321 16.8479 49.0478C17.4 49.0636 17.9417 48.8953 18.3877 48.5695L40.0354 36.2705" fill="#0442BF"/>
<path d="M18.083 11.8322L18.1106 11.8535L18.1409 11.8706L39.2549 23.8579L33.8112 29.3016L16.1238 11.6142C16.3537 11.5077 16.6043 11.4474 16.8613 11.439C17.3018 11.4246 17.7336 11.5636 18.083 11.8322Z" fill="#0442BF"/>
<path d="M18.083 11.8322L18.1106 11.8535L18.1409 11.8706L39.2549 23.8579L33.8112 29.3016L16.1238 11.6142C16.3537 11.5077 16.6043 11.4474 16.8613 11.439C17.3018 11.4246 17.7336 11.5636 18.083 11.8322Z" fill="#0442BF"/>
<path d="M18.083 11.8322L18.1106 11.8535L18.1409 11.8706L39.2549 23.8579L33.8112 29.3016L16.1238 11.6142C16.3537 11.5077 16.6043 11.4474 16.8613 11.439C17.3018 11.4246 17.7336 11.5636 18.083 11.8322Z" stroke="#0442BF"/>
<path d="M18.083 11.8322L18.1106 11.8535L18.1409 11.8706L39.2549 23.8579L33.8112 29.3016L16.1238 11.6142C16.3537 11.5077 16.6043 11.4474 16.8613 11.439C17.3018 11.4246 17.7336 11.5636 18.083 11.8322Z" stroke="#0442BF"/>
<path opacity="0.1" d="M39.936 36.1328L18.388 48.3571C17.9581 48.6773 17.4364 48.8503 16.9004 48.8503C16.3644 48.8503 15.8426 48.6773 15.4128 48.3571L15.3008 48.4691L15.4128 48.5811C15.8426 48.9014 16.3644 49.0744 16.9004 49.0744C17.4364 49.0744 17.9581 48.9014 18.388 48.5811L40.0356 36.2822L39.936 36.1328Z" fill="#0442BF"/>
<path opacity="0.07" d="M15.3378 48.2827C14.8551 47.6963 14.6107 46.9497 14.6532 46.1914V46.403C14.6114 47.1575 14.8559 47.8999 15.3378 48.4819L15.4499 48.3699L15.3378 48.2827Z" fill="#0442BF"/>
<path opacity="0.07" d="M47.3299 31.9258L39.9355 36.1334L40.0725 36.2703L47.3299 32.1001C47.7555 31.9129 48.1239 31.616 48.3973 31.2399C48.6707 30.8637 48.8393 30.4217 48.8859 29.959C48.801 30.3867 48.6156 30.7881 48.345 31.13C48.0745 31.472 47.7265 31.7448 47.3299 31.9258Z" fill="#0442BF"/>
<path opacity="0.3" d="M18.3878 11.6603L47.3302 28.0796C47.723 28.2562 48.0686 28.523 48.339 28.8582C48.6094 29.1935 48.7968 29.5878 48.8862 30.0091C48.8421 29.5456 48.6745 29.1025 48.4008 28.7259C48.1271 28.3493 47.7574 28.053 47.3302 27.868L18.3878 11.4362C16.3463 10.2661 14.6533 11.237 14.6533 13.6147V13.8263C14.6533 11.4611 16.3463 10.4777 18.3878 11.6603Z" fill="#0442BF"/>
<path d="M73.7256 45.9609C73.4749 46.2546 73.0918 46.5732 72.5762 46.917C72.0677 47.2536 71.4089 47.5436 70.5996 47.7871C69.7975 48.0306 68.8236 48.1523 67.6777 48.1523C66.3242 48.1523 65.1354 47.8587 64.1113 47.2715C63.0872 46.6771 62.2887 45.8141 61.7158 44.6826C61.1501 43.5511 60.8672 42.1797 60.8672 40.5684V39.6768C60.8672 38.0583 61.1393 36.6833 61.6836 35.5518C62.235 34.4202 63.0049 33.5573 63.9932 32.9629C64.9814 32.3685 66.1344 32.0713 67.4521 32.0713C68.8343 32.0713 69.9658 32.2969 70.8467 32.748C71.7275 33.1921 72.3971 33.8079 72.8555 34.5957C73.321 35.3835 73.6074 36.2894 73.7148 37.3135H70.4385C70.3669 36.7907 70.2201 36.3431 69.998 35.9707C69.7832 35.5911 69.4788 35.3011 69.085 35.1006C68.6911 34.8929 68.179 34.7891 67.5488 34.7891C66.8542 34.7891 66.2633 34.9717 65.7764 35.3369C65.2894 35.7021 64.917 36.2464 64.6592 36.9697C64.4085 37.6859 64.2832 38.5811 64.2832 39.6553V40.5684C64.2832 41.6354 64.4193 42.5306 64.6914 43.2539C64.9635 43.9772 65.3646 44.5215 65.8945 44.8867C66.4316 45.252 67.0941 45.4346 67.8818 45.4346C68.3688 45.4346 68.7734 45.3952 69.0957 45.3164C69.418 45.2376 69.6794 45.1445 69.8799 45.0371C70.0804 44.9225 70.2344 44.8151 70.3418 44.7148V42.1152H67.5059V39.6553H73.7256V45.9609ZM75.5625 42.0186C75.5625 40.887 75.7773 39.8773 76.207 38.9893C76.6367 38.0941 77.2633 37.3887 78.0869 36.873C78.9105 36.3574 79.9095 36.0996 81.084 36.0996C82.2728 36.0996 83.279 36.3574 84.1025 36.873C84.9333 37.3887 85.5599 38.0941 85.9824 38.9893C86.4121 39.8773 86.627 40.887 86.627 42.0186V42.2441C86.627 43.3685 86.4121 44.3783 85.9824 45.2734C85.5599 46.1686 84.9368 46.874 84.1133 47.3896C83.2897 47.8981 82.2871 48.1523 81.1055 48.1523C79.9238 48.1523 78.9176 47.8981 78.0869 47.3896C77.2633 46.874 76.6367 46.1686 76.207 45.2734C75.7773 44.3783 75.5625 43.3685 75.5625 42.2441V42.0186ZM78.8174 42.2441C78.8174 42.8529 78.889 43.4079 79.0322 43.9092C79.1826 44.4105 79.4225 44.8079 79.752 45.1016C80.0885 45.3952 80.5397 45.542 81.1055 45.542C81.6641 45.542 82.1081 45.3952 82.4375 45.1016C82.7741 44.8079 83.014 44.4105 83.1572 43.9092C83.3076 43.4079 83.3828 42.8529 83.3828 42.2441V42.0186C83.3828 41.4242 83.3076 40.8763 83.1572 40.375C83.014 39.8665 82.7741 39.4619 82.4375 39.1611C82.1081 38.8604 81.6569 38.71 81.084 38.71C80.5254 38.71 80.0778 38.8604 79.7412 39.1611C79.4118 39.4619 79.1755 39.8665 79.0322 40.375C78.889 40.8763 78.8174 41.4242 78.8174 42.0186V42.2441ZM88.002 42.0186C88.002 40.887 88.2168 39.8773 88.6465 38.9893C89.0762 38.0941 89.7028 37.3887 90.5264 36.873C91.3499 36.3574 92.349 36.0996 93.5234 36.0996C94.7122 36.0996 95.7184 36.3574 96.542 36.873C97.3727 37.3887 97.9993 38.0941 98.4219 38.9893C98.8516 39.8773 99.0664 40.887 99.0664 42.0186V42.2441C99.0664 43.3685 98.8516 44.3783 98.4219 45.2734C97.9993 46.1686 97.3763 46.874 96.5527 47.3896C95.7292 47.8981 94.7266 48.1523 93.5449 48.1523C92.3633 48.1523 91.3571 47.8981 90.5264 47.3896C89.7028 46.874 89.0762 46.1686 88.6465 45.2734C88.2168 44.3783 88.002 43.3685 88.002 42.2441V42.0186ZM91.2568 42.2441C91.2568 42.8529 91.3285 43.4079 91.4717 43.9092C91.6221 44.4105 91.862 44.8079 92.1914 45.1016C92.528 45.3952 92.9792 45.542 93.5449 45.542C94.1035 45.542 94.5475 45.3952 94.877 45.1016C95.2135 44.8079 95.4535 44.4105 95.5967 43.9092C95.7471 43.4079 95.8223 42.8529 95.8223 42.2441V42.0186C95.8223 41.4242 95.7471 40.8763 95.5967 40.375C95.4535 39.8665 95.2135 39.4619 94.877 39.1611C94.5475 38.8604 94.0964 38.71 93.5234 38.71C92.9648 38.71 92.5173 38.8604 92.1807 39.1611C91.8512 39.4619 91.6149 39.8665 91.4717 40.375C91.3285 40.8763 91.2568 41.4242 91.2568 42.0186V42.2441ZM111.205 36.3145V47.5186C111.205 48.5856 110.965 49.4915 110.485 50.2363C110.013 50.9811 109.35 51.5469 108.498 51.9336C107.646 52.3203 106.658 52.5137 105.533 52.5137C105.053 52.5137 104.541 52.4492 103.997 52.3203C103.453 52.1914 102.93 51.9945 102.429 51.7295C101.935 51.4645 101.523 51.1279 101.193 50.7197L102.611 48.7324C102.955 49.1191 103.363 49.4235 103.836 49.6455C104.309 49.8747 104.828 49.9893 105.394 49.9893C106.203 49.9893 106.829 49.7744 107.273 49.3447C107.725 48.9222 107.95 48.3135 107.95 47.5186V39.0322L108.262 36.3145H111.205ZM100.463 42.04C100.463 40.8584 100.653 39.8236 101.032 38.9355C101.419 38.0404 101.967 37.3457 102.676 36.8516C103.385 36.3503 104.226 36.0996 105.2 36.0996C105.981 36.0996 106.632 36.25 107.155 36.5508C107.685 36.8444 108.115 37.2598 108.444 37.7969C108.774 38.334 109.032 38.9678 109.218 39.6982C109.404 40.4215 109.554 41.2093 109.669 42.0615V42.3301C109.519 43.4115 109.275 44.3926 108.938 45.2734C108.602 46.1543 108.129 46.8561 107.521 47.3789C106.912 47.8945 106.131 48.1523 105.179 48.1523C104.212 48.1523 103.374 47.8981 102.665 47.3896C101.963 46.874 101.419 46.1722 101.032 45.2842C100.653 44.3962 100.463 43.39 100.463 42.2656V42.04ZM103.718 42.2656C103.718 42.8672 103.8 43.415 103.965 43.9092C104.13 44.4033 104.38 44.7972 104.717 45.0908C105.053 45.3773 105.483 45.5205 106.006 45.5205C106.557 45.5205 107.001 45.4059 107.338 45.1768C107.682 44.9404 107.939 44.6146 108.111 44.1992C108.29 43.7839 108.391 43.304 108.412 42.7598V41.6426C108.398 41.1771 108.34 40.7653 108.24 40.4072C108.14 40.042 107.993 39.7376 107.8 39.4941C107.606 39.2435 107.363 39.0537 107.069 38.9248C106.783 38.7959 106.436 38.7314 106.027 38.7314C105.512 38.7314 105.082 38.8783 104.738 39.1719C104.395 39.4583 104.137 39.8522 103.965 40.3535C103.8 40.8477 103.718 41.4098 103.718 42.04V42.2656ZM116.931 47.9375H113.676V31.4375H116.931V47.9375ZM124.848 48.1523C123.623 48.1523 122.574 47.8981 121.7 47.3896C120.834 46.8812 120.168 46.2008 119.702 45.3486C119.244 44.4964 119.015 43.5547 119.015 42.5234V42.1045C119.015 40.9443 119.233 39.9131 119.67 39.0107C120.114 38.1012 120.744 37.3887 121.561 36.873C122.377 36.3574 123.351 36.0996 124.482 36.0996C125.607 36.0996 126.552 36.3359 127.318 36.8086C128.085 37.2812 128.665 37.9473 129.059 38.8066C129.452 39.6589 129.649 40.6615 129.649 41.8145V43.1895H120.379V41.0088H126.459V40.751C126.459 40.3499 126.387 39.9954 126.244 39.6875C126.101 39.3796 125.882 39.1396 125.589 38.9678C125.302 38.7959 124.926 38.71 124.461 38.71C123.931 38.71 123.505 38.8604 123.183 39.1611C122.86 39.4619 122.624 39.8665 122.474 40.375C122.33 40.8835 122.259 41.46 122.259 42.1045V42.5234C122.259 43.1178 122.37 43.6406 122.592 44.0918C122.814 44.543 123.132 44.8975 123.548 45.1553C123.963 45.4059 124.465 45.5312 125.052 45.5312C125.603 45.5312 126.119 45.431 126.599 45.2305C127.078 45.0228 127.487 44.7005 127.823 44.2637L129.392 46.0576C129.026 46.5804 128.461 47.0602 127.694 47.4971C126.935 47.9339 125.986 48.1523 124.848 48.1523ZM139.253 42.4912V39.7734H143.185C143.779 39.7734 144.259 39.6768 144.624 39.4834C144.996 39.29 145.269 39.0251 145.44 38.6885C145.612 38.3519 145.698 37.9652 145.698 37.5283C145.698 37.0915 145.612 36.6833 145.44 36.3037C145.269 35.917 144.996 35.609 144.624 35.3799C144.259 35.1436 143.779 35.0254 143.185 35.0254H140.413V47.9375H137.029V32.2969H143.185C144.424 32.2969 145.487 32.5225 146.375 32.9736C147.263 33.4248 147.943 34.0443 148.416 34.832C148.889 35.6126 149.125 36.5042 149.125 37.5068C149.125 38.5238 148.889 39.4046 148.416 40.1494C147.943 40.8942 147.263 41.4707 146.375 41.8789C145.487 42.2871 144.424 42.4912 143.185 42.4912H139.253ZM154.507 47.9375H151.252V31.4375H154.507V47.9375ZM163.219 40.1924C163.219 39.6696 163.09 39.2542 162.832 38.9463C162.574 38.6383 162.162 38.4844 161.597 38.4844C161.274 38.4844 160.995 38.5381 160.759 38.6455C160.522 38.7529 160.343 38.9069 160.222 39.1074C160.1 39.3008 160.039 39.5407 160.039 39.8271H156.795C156.795 39.1396 156.999 38.5166 157.407 37.958C157.815 37.3923 158.392 36.9411 159.137 36.6045C159.882 36.2679 160.759 36.0996 161.769 36.0996C162.671 36.0996 163.477 36.2536 164.186 36.5615C164.895 36.8623 165.453 37.3171 165.861 37.9258C166.27 38.5345 166.474 39.2972 166.474 40.2139V45.0693C166.474 45.7568 166.513 46.3011 166.592 46.7021C166.678 47.1032 166.796 47.4541 166.946 47.7549V47.9375H163.681C163.523 47.6081 163.405 47.1963 163.326 46.7021C163.255 46.208 163.219 45.7067 163.219 45.1982V40.1924ZM163.659 42.6953H162.005C161.217 42.6953 160.648 42.8672 160.297 43.2109C159.946 43.5475 159.771 43.9557 159.771 44.4355C159.771 44.8008 159.899 45.1016 160.157 45.3379C160.415 45.5742 160.762 45.6924 161.199 45.6924C161.65 45.6924 162.037 45.6064 162.359 45.4346C162.689 45.2555 162.939 45.0443 163.111 44.8008C163.29 44.5501 163.376 44.321 163.369 44.1133L164.207 45.5098C164.092 45.7962 163.938 46.0934 163.745 46.4014C163.559 46.7093 163.319 46.9958 163.025 47.2607C162.732 47.5257 162.374 47.7406 161.951 47.9053C161.536 48.07 161.045 48.1523 160.479 48.1523C159.749 48.1523 159.083 48.0055 158.481 47.7119C157.88 47.4111 157.404 46.9993 157.053 46.4766C156.702 45.9466 156.526 45.3415 156.526 44.6611C156.526 43.4437 156.978 42.502 157.88 41.8359C158.782 41.1628 160.125 40.8262 161.908 40.8262H163.638L163.659 42.6953ZM175.271 36.3145H178.741L174.101 49.6777C174 49.9642 173.864 50.2757 173.692 50.6123C173.521 50.9561 173.291 51.2819 173.005 51.5898C172.726 51.8978 172.368 52.1484 171.931 52.3418C171.501 52.5352 170.975 52.6318 170.352 52.6318C170.151 52.6318 169.976 52.6247 169.825 52.6104C169.682 52.596 169.542 52.571 169.406 52.5352C169.27 52.5065 169.116 52.4707 168.944 52.4277V49.9785C169.023 49.9785 169.102 49.9785 169.181 49.9785C169.267 49.9857 169.345 49.9893 169.417 49.9893C170.026 49.9893 170.47 49.8962 170.749 49.71C171.028 49.5238 171.24 49.2266 171.383 48.8184L172.231 46.5947L175.271 36.3145ZM173.553 44.5322L173.993 48.1094L171.802 48.2598L167.645 36.3145H171.136L173.553 44.5322Z" fill="#0442BF"/>
<path d="M67.3193 20.8418C67.1943 20.998 67.0049 21.1719 66.751 21.3633C66.4971 21.5508 66.1572 21.7129 65.7314 21.8496C65.3096 21.9863 64.7842 22.0547 64.1553 22.0547C63.4365 22.0547 62.8018 21.8945 62.251 21.5742C61.7041 21.2539 61.2764 20.7871 60.9678 20.1738C60.6592 19.5605 60.5049 18.8223 60.5049 17.959V17.3848C60.5049 16.5176 60.6475 15.7793 60.9326 15.1699C61.2178 14.5566 61.6221 14.0898 62.1455 13.7695C62.6729 13.4492 63.2998 13.2891 64.0264 13.2891C64.7295 13.2891 65.3115 13.4062 65.7725 13.6406C66.2373 13.875 66.5947 14.1992 66.8447 14.6133C67.0947 15.0234 67.251 15.4961 67.3135 16.0312H65.8311C65.7881 15.7344 65.7002 15.4727 65.5674 15.2461C65.4346 15.0156 65.2451 14.834 64.999 14.7012C64.7529 14.5684 64.4385 14.502 64.0557 14.502C63.6064 14.502 63.2314 14.6152 62.9307 14.8418C62.6299 15.0645 62.4053 15.3906 62.2568 15.8203C62.1084 16.2461 62.0342 16.7637 62.0342 17.373V17.959C62.0342 18.5762 62.1201 19.0996 62.292 19.5293C62.4678 19.9551 62.7178 20.2812 63.042 20.5078C63.3662 20.7305 63.7568 20.8418 64.2139 20.8418C64.542 20.8418 64.8115 20.8145 65.0225 20.7598C65.2334 20.7051 65.3994 20.6387 65.5205 20.5605C65.6455 20.4824 65.7412 20.4082 65.8076 20.3379V18.6855H64.0615V17.5488H67.3193V20.8418ZM74.5805 21.9375H70.0746V20.7246H74.5805V21.9375ZM70.4965 21.9375H68.9848V13.4062H70.4965V21.9375ZM73.9887 18.1406H70.0746V16.9453H73.9887V18.1406ZM74.5512 14.625H70.0746V13.4062H74.5512V14.625ZM79.4921 21.9375H77.9921V13.4062H79.4921V21.9375ZM82.1522 14.625H75.3554V13.4062H82.1522V14.625ZM87.7156 21.9375H86.2097V13.4062H87.7156V21.9375ZM93.1252 21.9375H91.6252V13.4062H93.1252V21.9375ZM95.7854 14.625H88.9885V13.4062H95.7854V14.625ZM106.575 17.8945C106.575 18.7578 106.427 19.5 106.13 20.1211C105.833 20.7422 105.419 21.2207 104.888 21.5566C104.36 21.8887 103.741 22.0547 103.03 22.0547C102.335 22.0547 101.718 21.8887 101.179 21.5566C100.644 21.2207 100.224 20.7422 99.919 20.1211C99.6182 19.5 99.4678 18.7578 99.4678 17.8945V17.4551C99.4678 16.5918 99.6182 15.8496 99.919 15.2285C100.22 14.6035 100.638 14.125 101.173 13.793C101.708 13.457 102.323 13.2891 103.019 13.2891C103.73 13.2891 104.351 13.457 104.882 13.793C105.413 14.125 105.827 14.6035 106.124 15.2285C106.425 15.8496 106.575 16.5918 106.575 17.4551V17.8945ZM105.058 17.4434C105.058 16.8145 104.978 16.2852 104.817 15.8555C104.657 15.4219 104.425 15.0957 104.12 14.877C103.816 14.6543 103.448 14.543 103.019 14.543C102.597 14.543 102.233 14.6543 101.929 14.877C101.628 15.0957 101.396 15.4219 101.232 15.8555C101.071 16.2852 100.991 16.8145 100.991 17.4434V17.8945C100.991 18.5234 101.073 19.0547 101.237 19.4883C101.401 19.9219 101.636 20.25 101.941 20.4727C102.245 20.6953 102.608 20.8066 103.03 20.8066C103.464 20.8066 103.831 20.6953 104.132 20.4727C104.437 20.25 104.667 19.9219 104.823 19.4883C104.98 19.0547 105.058 18.5234 105.058 17.8945V17.4434ZM114.879 21.9375H113.362L109.6 15.9258V21.9375H108.088V13.4062H109.6L113.374 19.4297V13.4062H114.879V21.9375Z" fill="#0442BF"/>
</svg>
