<svg width="201" height="56" viewBox="0 0 201 56" fill="none" xmlns="http://www.w3.org/2000/svg">
<path d="M23.9374 24.2388C26.0273 23.1255 28.0781 22.0122 30.1679 20.9185L28.8984 20.2154C28.4162 19.9645 27.8543 19.9154 27.3359 20.0786C26.2928 20.3838 25.2287 20.6123 24.1523 20.7622C23.405 20.8169 22.6688 20.9746 21.9648 21.231C21.5668 21.359 21.1812 21.5224 20.8124 21.7193L15.3242 16.4068C14.582 15.645 12.9804 17.1099 13.8203 17.9693C13.8203 18.0669 18.8398 23.5357 18.8398 23.5357C18.8398 23.5357 18.5859 24.2193 18.4492 24.7466C18.2166 25.779 18.0922 26.8329 18.0781 27.8911C18.0781 28.6529 17.3163 30.9771 17.3163 31.0943C17.4966 31.7127 17.8569 32.2635 18.3515 32.6763C19.4257 30.5669 20.3046 28.6333 21.4765 26.5435C22.1796 27.4615 23.664 28.77 25.1874 30.4497C27.3795 32.6674 29.8554 34.5851 32.5507 36.1529C34.6233 37.3771 36.8324 38.3538 39.1328 39.063C35.4055 41.7153 30.8147 42.8635 26.2777 42.2782C21.7407 41.693 17.5916 39.4173 14.6594 35.906C11.7272 32.3947 10.228 27.9062 10.4611 23.3376C10.6943 18.7689 12.6428 14.4565 15.9172 11.2619C19.1916 8.06737 23.5508 6.22597 28.1239 6.10565C32.6969 5.98534 37.1469 7.59498 40.5848 10.6129C44.0226 13.6309 46.1952 17.8349 46.6683 22.385C47.1413 26.9351 45.8801 31.4961 43.1367 35.1568C36.8476 35.1568 29.1328 31.2505 23.9374 24.2388Z" fill="#0442BF"/>
<path d="M61.9453 35.5664C62.7763 35.5164 63.5638 35.178 64.1719 34.6094L65.1875 35.6445C64.6382 36.765 63.7612 37.692 62.6729 38.3025C61.5845 38.9129 60.3363 39.178 59.0938 39.0625C55.3828 39.0625 53.2344 37.3438 53.2344 33.1055C53.2344 31.6211 53.2344 30.4688 53.2344 28.8086V20.6641H50.6562V18.1055L55.5195 17.4609L53.2344 19.1797L55.7539 11.7188H59.9531L59.8555 19.5313V32.7344C59.8555 34.6484 60.7344 35.5664 61.9453 35.5664ZM64.1523 17.7148V20.6641H56.6133V17.7148H64.1523Z" fill="#0442BF"/>
<path d="M68.332 29.4146V26.9146C68.332 24.5708 68.332 23.6919 68.2148 21.9927L65.6953 21.6021V19.9224L73.8008 17.0708L74.5039 17.5396L74.875 22.7935V29.4146C74.875 32.0708 74.875 36.4849 74.9922 38.4185H68.2148C68.293 36.4849 68.332 32.0708 68.332 29.4146ZM66.0078 36.4263L69.9141 35.5669H74.25L78.1562 36.4263V38.3794H66.0078V36.4263ZM71.8672 23.77H74.9141L74.3672 24.9419C75.0898 19.688 77.9414 17.1294 80.4023 17.1294C81.2906 17.0961 82.1576 17.4063 82.8232 17.9955C83.4888 18.5847 83.9019 19.4077 83.9766 20.2935C83.8789 22.52 82.6875 23.7896 81.0469 23.7896C80.3987 23.7526 79.77 23.5546 79.2175 23.2136C78.6651 22.8726 78.2064 22.3993 77.8828 21.8364L76.6719 20.0981L78.332 20.7231C76.5534 22.235 75.33 24.2969 74.8555 26.5825L71.8281 26.2896L71.8672 23.77Z" fill="#0442BF"/>
<path d="M92.2969 26.4849C93.9766 25.9771 96.9063 25.1763 98.8399 24.688V26.4849C97.0095 26.916 95.2141 27.484 93.4688 28.1841C92.5713 28.4892 91.7897 29.0636 91.2304 29.829C90.6712 30.5944 90.3616 31.5137 90.3438 32.4614C90.3438 34.6099 91.4375 35.606 92.8242 35.606C93.6055 35.606 94.25 35.2544 95.5586 34.2583L97.1992 32.9692L97.6289 33.5942L95.9102 35.5474C93.957 37.7349 92.6485 39.063 89.6602 39.063C88.9317 39.1168 88.2003 39.0116 87.5166 38.7546C86.8328 38.4977 86.2131 38.0952 85.7004 37.575C85.1876 37.0549 84.7941 36.4294 84.547 35.7421C84.3 35.0547 84.2053 34.3218 84.2695 33.5942C84.2695 30.5474 85.8906 28.3989 92.2969 26.4849ZM95.4024 34.9028V24.1997C95.4024 20.2935 94.6992 19.2778 92.082 19.2778C90.7569 19.3003 89.4417 19.5107 88.1758 19.9028L91.0078 18.2231L90.7149 21.1919C90.7149 24.0435 89.2891 25.1958 87.707 25.1958C87.0599 25.2491 86.4162 25.0582 85.9029 24.6605C85.3895 24.2628 85.0437 23.6873 84.9336 23.0474C85.1485 19.5317 88.3906 17.0708 94.3672 17.0708C99.6406 17.0708 101.711 19.395 101.711 25.1372V34.7271C101.711 35.5669 102.063 35.9771 102.648 35.9771C103.234 35.9771 103.41 35.7427 103.898 35.0396L104.973 35.8013C104.653 36.8163 103.997 37.6922 103.113 38.285C102.229 38.8778 101.17 39.1521 100.109 39.063C99.5189 39.1251 98.922 39.0646 98.3559 38.8855C97.7898 38.7064 97.2668 38.4124 96.8195 38.022C96.3722 37.6315 96.0103 37.153 95.7564 36.6163C95.5025 36.0796 95.362 35.4963 95.3438 34.9028H95.4024Z" fill="#0442BF"/>
<path d="M107.434 20.3901L103.703 19.6284V17.6753H115.422V19.6284L111.691 20.3901H107.434ZM111.828 17.7144L117.199 32.9487L114.445 37.5776L120.988 17.7144H123.859L116.242 38.4761H113.098L104.816 17.7144H111.828ZM120.988 20.2925L117.687 19.6284V17.6753H125.5V19.6284L122.121 20.2925H120.988Z" fill="#0442BF"/>
<path d="M144.777 26.1125C144.788 26.8872 144.709 27.6605 144.543 28.4172H128.469V26.1516H136.164C138.117 26.1516 138.645 25.3899 138.645 23.4758C138.645 20.6633 137.356 19.2766 135.871 19.2766C134.387 19.2766 132.609 21.2297 132.609 27.4016C132.609 32.6164 135.09 34.9797 138.156 34.9797C139.094 34.9707 140.019 34.7602 140.868 34.3626C141.717 33.9649 142.471 33.3894 143.078 32.675L144.484 34.0617C143.714 35.6487 142.49 36.9711 140.967 37.8613C139.444 38.7514 137.691 39.1692 135.93 39.0617C129.953 39.0617 125.695 34.9797 125.695 28.0852C125.623 26.6559 125.845 25.2269 126.346 23.8863C126.846 22.5457 127.616 21.3218 128.608 20.2899C129.6 19.258 130.792 18.44 132.112 17.8861C133.431 17.3323 134.85 17.0544 136.281 17.0696C141.692 17.0696 144.777 20.9367 144.777 26.1125Z" fill="#0442BF"/>
<path d="M154.797 7.32434L155.461 7.75403L155.187 13.672V29.297C155.187 32.3048 155.187 35.2931 155.324 38.3009H148.527C148.527 35.2931 148.645 32.3048 148.645 29.297V11.4845L146.105 11.0548V9.25793L154.797 7.32434ZM157.629 36.4259V38.379H146.301V36.4259L150.207 35.5665H153.312L157.629 36.4259Z" fill="#0442BF"/>
<path d="M167.961 7.32434L168.625 7.75403L168.469 13.672V29.297C168.469 32.3048 168.469 35.2931 168.605 38.3009H161.789C161.789 35.2931 161.906 32.3048 161.906 29.297V11.4845L159.367 11.0548V9.25793L167.961 7.32434ZM170.793 36.4259V38.379H159.563V36.4259L163.469 35.5665H166.516L170.793 36.4259Z" fill="#0442BF"/>
<path d="M175.168 29.4146V26.9146C175.168 24.5708 175.168 23.6919 175.051 21.9927L172.531 21.6021V19.9224L180.637 17.0708L181.34 17.5396L181.711 22.7935V29.4146C181.711 32.0708 181.711 36.4849 181.828 38.4185H175.051C175.129 36.4849 175.168 32.0708 175.168 29.4146ZM172.863 36.4263L176.77 35.5669H181.086L184.992 36.4263V38.3794H172.863V36.4263ZM178.723 23.77H181.75L181.203 24.9419C181.926 19.688 184.797 17.1294 187.238 17.1294C188.127 17.0961 188.994 17.4063 189.659 17.9955C190.325 18.5847 190.738 19.4077 190.813 20.2935C190.813 22.52 189.543 23.7896 187.902 23.7896C187.251 23.7558 186.618 23.5593 186.062 23.2181C185.506 22.877 185.044 22.4019 184.719 21.8364L183.527 20.1958L185.187 20.8208C183.403 22.3307 182.173 24.3925 181.691 26.6802L178.684 26.3872L178.723 23.77Z" fill="#0442BF"/>
<path d="M175.715 16.973C177.505 16.973 178.957 15.5214 178.957 13.7308C178.957 11.9402 177.505 10.4886 175.715 10.4886C173.924 10.4886 172.473 11.9402 172.473 13.7308C172.473 15.5214 173.924 16.973 175.715 16.973Z" fill="#1F69FF"/>
</svg>
