<svg width="200" height="56" viewBox="0 0 200 56" fill="none" xmlns="http://www.w3.org/2000/svg">
<path d="M23.4374 24.239C25.5273 23.1258 27.5781 22.0125 29.6679 20.9187L28.3984 20.2156C27.9162 19.9648 27.3543 19.9156 26.8359 20.0789C25.7928 20.3841 24.7287 20.6125 23.6523 20.7625C22.905 20.8171 22.1688 20.9749 21.4648 21.2312C21.0668 21.3592 20.6812 21.5226 20.3124 21.7195L14.8242 16.407C14.082 15.6453 12.4804 17.1101 13.3203 17.9695C13.3203 18.0672 18.3398 23.5359 18.3398 23.5359C18.3398 23.5359 18.0859 24.2195 17.9492 24.7469C17.7166 25.7793 17.5922 26.8332 17.5781 27.8914C17.5781 28.6531 16.8163 30.9773 16.8163 31.0945C16.9966 31.713 17.3569 32.2637 17.8515 32.6765C18.9257 30.5672 19.8046 28.6336 20.9765 26.5437C21.6796 27.4617 23.164 28.7703 24.6874 30.45C26.8795 32.6676 29.3554 34.5853 32.0507 36.1531C34.1233 37.3773 36.3324 38.3541 38.6328 39.0633C34.9055 41.7155 30.3147 42.8637 25.7777 42.2785C21.2407 41.6932 17.0916 39.4176 14.1594 35.9062C11.2272 32.3949 9.72796 27.9065 9.96113 23.3378C10.1943 18.7692 12.1428 14.4567 15.4172 11.2622C18.6916 8.06761 23.0508 6.22621 27.6239 6.1059C32.1969 5.98559 36.6469 7.59522 40.0848 10.6132C43.5226 13.6311 45.6952 17.8352 46.1683 22.3852C46.6413 26.9353 45.3801 31.4964 42.6367 35.157C36.3476 35.157 28.6328 31.2508 23.4374 24.239Z" fill="white"/>
<path d="M61.4453 35.5664C62.2763 35.5164 63.0638 35.178 63.6719 34.6094L64.6875 35.6445C64.1382 36.765 63.2612 37.692 62.1729 38.3025C61.0845 38.9129 59.8363 39.178 58.5938 39.0625C54.8828 39.0625 52.7344 37.3438 52.7344 33.1055C52.7344 31.6211 52.7344 30.4688 52.7344 28.8086V20.6641H50.1562V18.1055L55.0195 17.4609L52.7344 19.1797L55.2539 11.7188H59.4531L59.3555 19.5313V32.7344C59.3555 34.6484 60.2344 35.5664 61.4453 35.5664ZM63.6523 17.7148V20.6641H56.1133V17.7148H63.6523Z" fill="white"/>
<path d="M67.832 29.4146V26.9146C67.832 24.5708 67.832 23.6919 67.7148 21.9927L65.1953 21.6021V19.9224L73.3008 17.0708L74.0039 17.5396L74.375 22.7935V29.4146C74.375 32.0708 74.375 36.4849 74.4922 38.4185H67.7148C67.793 36.4849 67.832 32.0708 67.832 29.4146ZM65.5078 36.4263L69.4141 35.5669H73.75L77.6562 36.4263V38.3794H65.5078V36.4263ZM71.3672 23.77H74.4141L73.8672 24.9419C74.5898 19.688 77.4414 17.1294 79.9023 17.1294C80.7906 17.0961 81.6576 17.4063 82.3232 17.9955C82.9888 18.5847 83.4019 19.4077 83.4766 20.2935C83.3789 22.52 82.1875 23.7896 80.5469 23.7896C79.8987 23.7526 79.27 23.5546 78.7175 23.2136C78.1651 22.8726 77.7064 22.3993 77.3828 21.8364L76.1719 20.0981L77.832 20.7231C76.0534 22.235 74.83 24.2969 74.3555 26.5825L71.3281 26.2896L71.3672 23.77Z" fill="white"/>
<path d="M91.7969 26.4849C93.4766 25.9771 96.4063 25.1763 98.3399 24.688V26.4849C96.5095 26.916 94.7141 27.484 92.9688 28.1841C92.0713 28.4892 91.2897 29.0636 90.7304 29.829C90.1712 30.5944 89.8616 31.5137 89.8438 32.4614C89.8438 34.6099 90.9375 35.606 92.3242 35.606C93.1055 35.606 93.75 35.2544 95.0586 34.2583L96.6992 32.9692L97.1289 33.5942L95.4102 35.5474C93.457 37.7349 92.1485 39.063 89.1602 39.063C88.4317 39.1168 87.7003 39.0116 87.0166 38.7546C86.3328 38.4977 85.7131 38.0952 85.2004 37.575C84.6876 37.0549 84.2941 36.4294 84.047 35.7421C83.8 35.0547 83.7053 34.3218 83.7695 33.5942C83.7695 30.5474 85.3906 28.3989 91.7969 26.4849ZM94.9024 34.9028V24.1997C94.9024 20.2935 94.1992 19.2778 91.582 19.2778C90.2569 19.3003 88.9417 19.5107 87.6758 19.9028L90.5078 18.2231L90.2149 21.1919C90.2149 24.0435 88.7891 25.1958 87.207 25.1958C86.5599 25.2491 85.9162 25.0582 85.4029 24.6605C84.8895 24.2628 84.5437 23.6873 84.4336 23.0474C84.6485 19.5317 87.8906 17.0708 93.8672 17.0708C99.1406 17.0708 101.211 19.395 101.211 25.1372V34.7271C101.211 35.5669 101.563 35.9771 102.148 35.9771C102.734 35.9771 102.91 35.7427 103.398 35.0396L104.473 35.8013C104.153 36.8163 103.497 37.6922 102.613 38.285C101.729 38.8778 100.67 39.1521 99.6094 39.063C99.0189 39.1251 98.422 39.0646 97.8559 38.8855C97.2898 38.7064 96.7668 38.4124 96.3195 38.022C95.8722 37.6315 95.5103 37.153 95.2564 36.6163C95.0025 36.0796 94.862 35.4963 94.8438 34.9028H94.9024Z" fill="white"/>
<path d="M106.934 20.3901L103.203 19.6284V17.6753H114.922V19.6284L111.191 20.3901H106.934ZM111.328 17.7144L116.699 32.9487L113.945 37.5776L120.488 17.7144H123.359L115.742 38.4761H112.598L104.316 17.7144H111.328ZM120.488 20.2925L117.187 19.6284V17.6753H125V19.6284L121.621 20.2925H120.488Z" fill="white"/>
<path d="M144.277 26.1124C144.288 26.8871 144.209 27.6604 144.043 28.4171H127.969V26.1515H135.664C137.617 26.1515 138.145 25.3897 138.145 23.4757C138.145 20.6632 136.856 19.2765 135.371 19.2765C133.887 19.2765 132.109 21.2296 132.109 27.4015C132.109 32.6163 134.59 34.9796 137.656 34.9796C138.594 34.9705 139.519 34.7601 140.368 34.3624C141.217 33.9648 141.971 33.3893 142.578 32.6749L143.984 34.0616C143.214 35.6486 141.99 36.971 140.467 37.8611C138.944 38.7513 137.191 39.1691 135.43 39.0616C129.453 39.0616 125.195 34.9796 125.195 28.0851C125.123 26.6557 125.345 25.2268 125.846 23.8862C126.346 22.5456 127.116 21.3216 128.108 20.2898C129.1 19.2579 130.292 18.4398 131.612 17.886C132.931 17.3322 134.35 17.0543 135.781 17.0694C141.192 17.0694 144.277 20.9366 144.277 26.1124Z" fill="white"/>
<path d="M154.297 7.32422L154.961 7.75391L154.687 13.6719V29.2969C154.687 32.3047 154.687 35.293 154.824 38.3008H148.027C148.027 35.293 148.145 32.3047 148.145 29.2969V11.4844L145.605 11.0547V9.25781L154.297 7.32422ZM157.129 36.4258V38.3789H145.801V36.4258L149.707 35.5664H152.812L157.129 36.4258Z" fill="white"/>
<path d="M167.461 7.32422L168.125 7.75391L167.969 13.6719V29.2969C167.969 32.3047 167.969 35.293 168.105 38.3008H161.289C161.289 35.293 161.406 32.3047 161.406 29.2969V11.4844L158.867 11.0547V9.25781L167.461 7.32422ZM170.293 36.4258V38.3789H159.063V36.4258L162.969 35.5664H166.016L170.293 36.4258Z" fill="white"/>
<path d="M174.668 29.4146V26.9146C174.668 24.5708 174.668 23.6919 174.551 21.9927L172.031 21.6021V19.9224L180.137 17.0708L180.84 17.5396L181.211 22.7935V29.4146C181.211 32.0708 181.211 36.4849 181.328 38.4185H174.551C174.629 36.4849 174.668 32.0708 174.668 29.4146ZM172.363 36.4263L176.27 35.5669H180.586L184.492 36.4263V38.3794H172.363V36.4263ZM178.223 23.77H181.25L180.703 24.9419C181.426 19.688 184.297 17.1294 186.738 17.1294C187.627 17.0961 188.494 17.4063 189.159 17.9955C189.825 18.5847 190.238 19.4077 190.313 20.2935C190.313 22.52 189.043 23.7896 187.402 23.7896C186.751 23.7558 186.118 23.5593 185.562 23.2181C185.006 22.877 184.544 22.4019 184.219 21.8364L183.027 20.1958L184.687 20.8208C182.903 22.3307 181.673 24.3925 181.191 26.6802L178.184 26.3872L178.223 23.77Z" fill="white"/>
<path d="M175.215 16.9731C177.005 16.9731 178.457 15.5216 178.457 13.731C178.457 11.9403 177.005 10.4888 175.215 10.4888C173.424 10.4888 171.973 11.9403 171.973 13.731C171.973 15.5216 173.424 16.9731 175.215 16.9731Z" fill="white"/>
</svg>
